<svg xmlns="http://www.w3.org/2000/svg" version="1.1" xmlns:xlink="http://www.w3.org/1999/xlink" xmlns:svgjs="http://svgjs.dev/svgjs" viewBox="0 0 1920 1080"><rect width="1920" height="1080" fill="#0080ff"></rect><g transform="matrix(1.15,0,0,1.15,-142.34912109375,-81)"><path d="M0,-1080C0.5909718717810044,-950.4158302169941,7.211497083519221,-566.1851722905346,3.5458312306860265,-302.49498130196474C-0.11983462214716889,-38.80479031339485,-22.78621662595773,230.32388023897732,-21.993995116999173,502.1411459314192C-21.201773608040615,773.9584116238611,4.633494431604182,1052.0988038412563,8.299160284437377,1328.4086128526865C11.964826137270572,1604.7184218641166,1.3831933807395629,2021.4014354754477,0,2160L 1920 2160 L 1920 -1080 Z" fill="url(&quot;#SvgjsLinearGradient1132&quot;)"></path><path d="M320,-1080C326.93754808460795,-965.1074283910249,369.27322425759525,-608.8041215143757,361.6252885076476,-390.64457034614907C353.9773527577,-172.4850191779225,279.56900889748766,25.845720991266006,274.1123855003142,228.9573070093594C268.6557621031407,432.06889302745276,326.57218743643904,607.5191366175525,328.88554812460677,828.0249457624113C331.1989088127745,1048.5307549072702,289.473474316755,1329.996319505581,287.99254962932054,1551.9921618785124C286.51162494188605,1773.988004251444,314.6654249382201,2058.6653603130853,320,2160L 1920 2160 L 1920 -1080 Z" fill="url(&quot;#SvgjsLinearGradient1133&quot;)"></path><path d="M640,-1080C639.1221732977315,-997.2383908731549,639.7831718543598,-757.7650590860252,634.7330397863889,-583.4303452389292C629.6829077184179,-409.0956313918333,604.1617382816634,-221.72892427712077,609.6992075921743,-33.99171691742451C615.2366769026852,153.74549044227177,662.0157565057166,363.5161752287544,667.9578556494546,542.9928989192484C673.8999547931926,722.4696226097425,648.3464288694123,861.4197094569043,645.3518024546026,1042.8686252255397C642.357176039793,1224.317540994175,650.8820642363639,1445.4978310686504,649.9900971605969,1631.6863935310605C649.0981300848298,1817.8749559934706,641.6650161934328,2071.9477322551766,640,2160L 1920 2160 L 1920 -1080 Z" fill="url(&quot;#SvgjsLinearGradient1134&quot;)"></path><path d="M960,-1080C962.4366988837091,-970.861050995242,983.0438849281744,-647.4037546826733,974.6201933022552,-425.166305971452C966.196501676336,-202.9288572602307,904.6713153540292,38.01383901162984,909.4578502444847,253.42469226732777C914.2443851349402,468.8355455230257,991.878506170691,662.7193804598174,1003.3394026449885,867.2988135627356C1014.8002991192859,1071.878246665654,985.4464628644345,1265.4510931452928,978.2232290902697,1480.901290884837C970.9999953161049,1696.351488624381,963.0372048483782,2046.8168818141394,960,2160L 1920 2160 L 1920 -1080 Z" fill="url(&quot;#SvgjsLinearGradient1135&quot;)"></path><path d="M1280,-1080C1274.7483910687517,-998.82735219957,1240.5254596898753,-755.4709994226317,1248.490346412511,-592.9641131974196C1256.4552331351465,-430.4572269722074,1325.390368449234,-252.5292877447323,1327.7893203358135,-104.95868264872679C1330.188272222393,42.6119224472787,1267.8014552965415,153.0661458846567,1262.884057731988,292.4595173786134C1257.9666601674344,431.8528888725701,1296.518790681337,579.1025870493555,1298.2849349484925,731.4015463150133C1300.051079215648,883.7005055806711,1270.8597459954647,1046.1121302251843,1273.4809233349213,1206.25327297256C1276.1021006743779,1366.3944157199355,1312.9254862077191,1533.29061496136,1314.0119989852321,1692.2484027992666C1315.0985117627451,1851.2061906371732,1285.6686664975387,2082.0414004665445,1280,2160L 1920 2160 L 1920 -1080 Z" fill="url(&quot;#SvgjsLinearGradient1136&quot;)"></path><path d="M1600,-1080C1599.22172163833,-987.9640832641478,1592.0911517442078,-702.072764655101,1595.3303298299802,-527.7844995848867C1598.5695079157526,-353.49623451467244,1612.1511675059858,-207.21916131070924,1619.4350685146348,-34.270409578714506C1626.718969523284,138.67834215328025,1636.5517433054383,319.6643474837218,1639.0337358818747,509.9080108070816C1641.515728458311,700.1516741304414,1637.248190194593,929.5354545331508,1634.3270239732526,1107.191570361444C1631.4058577519122,1284.8476861897375,1627.2279092160406,1400.3766341704156,1621.5067385538318,1575.8447057768417C1615.785567891623,1751.3127773832678,1603.5844564256386,2062.6407842961403,1600,2160L 1920 2160 L 1920 -1080 Z" fill="url(&quot;#SvgjsLinearGradient1137&quot;)"></path></g><defs><linearGradient x1="0.1" y1="0" x2="0" y2="1" id="SvgjsLinearGradient1132"><stop stop-color="#0080ff" offset="0"></stop><stop stop-color="#00aaff" offset="0"></stop></linearGradient><linearGradient x1="0.1" y1="0" x2="0" y2="1" id="SvgjsLinearGradient1133"><stop stop-color="#006fdc" offset="0"></stop><stop stop-color="#0094dc" offset="0.16666666666666666"></stop></linearGradient><linearGradient x1="0.1" y1="0" x2="0" y2="1" id="SvgjsLinearGradient1134"><stop stop-color="#005db9" offset="0"></stop><stop stop-color="#007cb9" offset="0.3333333333333333"></stop></linearGradient><linearGradient x1="0.1" y1="0" x2="0" y2="1" id="SvgjsLinearGradient1135"><stop stop-color="#004c97" offset="0"></stop><stop stop-color="#006597" offset="0.5"></stop></linearGradient><linearGradient x1="0.1" y1="0" x2="0" y2="1" id="SvgjsLinearGradient1136"><stop stop-color="#003a74" offset="0"></stop><stop stop-color="#004d74" offset="0.6666666666666666"></stop></linearGradient><linearGradient x1="0.1" y1="0" x2="0" y2="1" id="SvgjsLinearGradient1137"><stop stop-color="#002951" offset="0"></stop><stop stop-color="#003651" offset="0.8333333333333334"></stop></linearGradient></defs></svg>