<svg xmlns="http://www.w3.org/2000/svg" width="256" height="256" viewBox="0 0 100 100"><rect width="100" height="100" rx="20" fill="#006fdd"></rect><path d="M14.57 54.57L14.57 65.13Q14.12 65.22 13.30 65.38Q12.47 65.52 11.52 65.52L11.52 65.52Q9.62 65.52 8.85 64.83Q8.07 64.13 8.07 62.47L8.07 62.47L8.07 37.38Q8.07 36.42 8.57 35.92Q9.07 35.42 9.97 35.13L9.97 35.13Q11.57 34.57 13.75 34.35Q15.92 34.13 18.22 34.13L18.22 34.13Q24.82 34.13 28.13 36.85Q31.42 39.57 31.42 44.38L31.42 44.38Q31.42 47.52 29.77 49.85Q28.13 52.17 25.22 53.42L25.22 53.42Q27.42 56.27 29.45 58.85Q31.47 61.42 32.47 62.88L32.47 62.88Q32.07 64.17 31.07 64.90Q30.07 65.63 28.88 65.63L28.88 65.63Q27.32 65.63 26.50 64.92Q25.67 64.22 24.88 63.02L24.88 63.02L19.22 54.57L14.57 54.57ZM14.47 49.47L18.57 49.47Q21.42 49.47 23.15 48.22Q24.88 46.97 24.88 44.42L24.88 44.42Q24.88 39.38 18.12 39.38L18.12 39.38Q17.12 39.38 16.20 39.47Q15.27 39.57 14.47 39.67L14.47 39.67L14.47 49.47ZM59.38 34.82L59.38 34.82Q59.63 35.22 59.85 35.90Q60.08 36.57 60.08 37.38L60.08 37.38Q60.08 38.72 59.45 39.42Q58.83 40.13 57.72 40.13L57.72 40.13L50.83 40.13L50.83 65.13Q50.42 65.22 49.57 65.38Q48.72 65.52 47.82 65.52L47.82 65.52Q45.92 65.52 45.13 64.83Q44.32 64.13 44.32 62.47L44.32 62.47L44.32 40.13L35.92 40.13Q35.67 39.67 35.45 39.02Q35.22 38.38 35.22 37.57L35.22 37.57Q35.22 36.17 35.85 35.50Q36.47 34.82 37.57 34.82L37.57 34.82L59.38 34.82ZM85.28 49.88L85.28 49.88Q85.28 47.17 84.53 45.20Q83.78 43.22 82.45 41.95Q81.13 40.67 79.30 40.05Q77.47 39.42 75.33 39.42L75.33 39.42Q74.17 39.42 73.25 39.50Q72.33 39.57 71.47 39.67L71.47 39.67L71.47 60.22Q72.33 60.42 73.40 60.50Q74.47 60.57 75.53 60.57L75.53 60.57Q80.17 60.57 82.72 57.88Q85.28 55.17 85.28 49.88ZM91.92 49.82L91.92 49.82Q91.92 53.88 90.75 56.90Q89.58 59.92 87.42 61.90Q85.28 63.88 82.25 64.88Q79.22 65.88 75.53 65.88L75.53 65.88Q74.67 65.88 73.67 65.85Q72.67 65.83 71.60 65.70Q70.52 65.58 69.45 65.38Q68.38 65.17 67.42 64.83L67.42 64.83Q65.02 63.92 65.02 61.82L65.02 61.82L65.02 37.32Q65.02 36.42 65.52 35.92Q66.02 35.42 66.92 35.13L66.92 35.13Q68.77 34.47 70.95 34.30Q73.13 34.13 75.08 34.13L75.08 34.13Q78.83 34.13 81.95 35.10Q85.08 36.07 87.28 38.02Q89.47 39.97 90.70 42.92Q91.92 45.88 91.92 49.82Z" fill="#fff"></path></svg>